<svg width="370" height="141" viewBox="0 0 370 141" xmlns="http://www.w3.org/2000/svg" xmlns:xlink="http://www.w3.org/1999/xlink"><title>ses_logo_weiss_negativ</title><defs><path id="a" d="M.02.144h369.717V141H.021V.144z"/></defs><g fill="none" fill-rule="evenodd"><mask id="b" fill="#fff"><use xlink:href="#a"/></mask><path d="M289.671 49.171c-.195.05-.293.344-.342.59.293-.1.391-.296.342-.59zm8.183-18.565c.58 1.452.917 2.905 1.35 4.406 0 .533.676.775.387 1.259-.868.048-1.592.823-2.074 1.356l.047.532c.435.145.628-.63 1.062-.339l.289-.145c-.144.678-.82 1.21-1.157 1.743-1.93.823-2.316 3.147-2.992 4.89.531-.678.917-1.259 1.4-1.937.048.582-.434 1.356-.628 1.937-.337.29-.337.969-.627 1.501.097.146.242 0 .386.049-.772 1.985-1.447 4.115-2.123 6.052-.337-.533.628-1.598-.144-2.276.29-.92.627-1.694.82-2.711-1.255.968-1.35 2.518-1.882 3.777.05.193-.096.387-.241.387-.82-.29-.29 1.065-1.11.581l-.385-.63c0 .436-.628 1.066.096 1.308.29.145.772.387 1.254.387.29.436.676.484 1.11.29 1.158-.726 2.605-1.307 3.666-2.13.29-.048.676-.193.82.097-.048.387-.579.678-.82.967 3.426-1.887 7.236-3.388 10.662-5.083l-.386.92c1.593-.29 3.087-1.016 4.728-1.404l.194-.532c2.604-.436 4.679-2.276 7.09-3.05 2.075-1.55 4.825-1.453 7.479-1.986 1.158.145 1.978-.629 2.75.242.29.049.29-.193.434.097l-.241.63c.24 0 .723-.243 1.012 0 .29.58-.482.726-.771.968-.675.048-1.35.242-1.688.726 0 .29.144.339.29.581 1.06-.145 2.266-.581 3.28-.823-.435.58-1.4.58-1.738 1.162.772.049 1.64.194 2.365-.097.096.242-.386.581-.676.823-.192.146-.386.291-.676.242-.144.485-1.205.824-.722 1.308 2.026-.098 3.376-.823 5.161-1.308.241.291-.193.388-.338.485-1.253.871-2.894 1.113-3.956 2.033.097.484.676.823 1.159.581l.578-.097c.048.824-1.592.775-.869 1.55-.047.435-.723.387-1.11.677.195.145.531.098.676.291-.145.484-.868.58-.723.92.578.144 1.206-.533 1.496-.145-.773 1.016-2.316.726-3.474 1.163-2.75.434-4.97 1.79-7.912 1.548-2.267.194-4.68.194-6.706.871-1.013-.144-2.075.34-3.088.34-.53-.678-1.205-.194-1.784-.29-4.053 1.064-8.491.29-12.255 2.42-.965-.096-1.446-1.259-2.315-1.597-.24 1.694-.771 3.098-.965 4.793.386.29.772-.194 1.061.193-.096.242-.578.485-.964.387-.193.34-.193 1.018-.097 1.405.338-.194.675-.29 1.061-.242-.096.435-.675.387-1.109.484-.048 1.937-.048 3.437-.434 5.472.144 2.856-.049 5.954-.435 8.57.339.483-.193.823.145 1.307.145.484-.338.63-.096 1.065-.096 2.034-.049 4.697-.386 6.827l-.338.387c0 1.356.386 3.05.338 4.407.482-2.324.193-5.569.627-6.973.242-2.711.242-5.18.482-7.844.387.726-.048 2.421.097 3.44-.145 3.968-.627 7.745-.627 11.86l-.53.243c-.05.243.144.533.433.58.145 2.422.29 4.359 0 6.682l-.386.05c-.144.919.773 1.016.58 1.839-.194 6.536.53 13.605-.386 20.045 0 1.84-.387 4.551-.966 6.343.049.194.097.436.049.726-.338.146-.483-.242-.531-.532.193-.969-.434-1.986.193-2.857-.434-.679-.434-1.55-.724-2.276-.627 1.308-1.206 2.47-.869 3.728-.29 1.744-.192 3.196-.433 4.697-.434-.049-.29-.532-.29-.87-.193-.195.628-1.454-.29-1.744l-.29.29c-.047.775-.144 1.744-.433 2.324l-.048.34c-.483-1.018-.048-2.422-.29-3.535-.385.677-.385 1.646-.674 2.324l-.387.29.29-2.47c-.531-.241-.869.049-1.447.098.047.483-.338.58-.629.87-.337.824-.723 1.6-1.012 2.519h-.387c.58-.678.58-1.452.87-2.275-.194.047-.435.145-.676-.049.434-.63.82-1.355.675-2.227-.482-.243.05-1.065-.434-1.258-.386.337.241.87-.145 1.305.386.388-.338.63-.338.92-.096.437-.096 1.21-.579 1.309.146-1.018.772-2.034.146-2.905-.338-.582-.146-1.502-.966-1.986.58-.581-.29-.823-.192-1.404-.869.533-.676-.727-.965-1.114l-.434.242c-.29 1.162-.097 2.324-.627 3.341.144.387.096.823-.193 1.162-.483-.387-.05-.92-.29-1.403-.965-3.729-.53-8.958-.82-12.541-.338.097-.097.63-.29.968l-.289-.048v-1.501c.14-.14.548-.145.534.028.326-1.974-.823-3.375-.823-5.258.096-.822-.145-1.5-.049-2.276-.772.291 0 1.26-.337 1.744l-.337.097c-.194-.34.143-1.26-.58-1.017-.338.677-.29 1.404-.29 2.131l-.579.096c-.047 1.017.29 2.13.097 3.05-.337.049-.193-.338-.386-.435-.241-.776-.048-2.131-1.013-2.663-.145.92.048 2.033 0 2.856.096.29.337.582.242.97-.773.144-.194-.873-.531-1.308-.917-5.18-1.35-11.524-.724-17.14.868-5.811 2.026-11.96 3.86-17.674-.387-2.275-1.159-4.55-1.11-6.682 0-.968-1.014-.968-1.69-1.065-7.284-1.161-14.858-4.163-20.116-9.635-1.496-1.259-2.75-3.147-3.329-4.987-2.17-2.178-3.474-5.035-2.991-8.425.724-.774 1.254-1.937 2.412-1.84.82-.435 1.785-.097 2.702-.387.723-.097 1.398.242 1.881-.484.676.048.53.678 1.158.629.724-.29.627.533 1.206.678 1.013.63 1.737 1.356 3.04 1.5.578.098 1.543.146 2.122.195.241.145.483 0 .82.048 2.605.581 5.114.63 7.718 1.598.87.048 1.738.338 2.703.387.723.436 1.495.34 2.219.63.434.097 1.159.048 1.785.29 3.474.726 7.623 1.695 10.806 3.438.29.532.869.436 1.303.678.675-.146-.193-.678.29-1.017.096-.871-.146-1.646-1.013-2.082-.097-.92-1.303-.775-1.207-1.695.483-1.258-.144-2.614-.627-3.486-.338-.29-.82-.92-.723-1.21-.242-.097 0-.29-.048-.387.144-2.131.675-4.456 1.785-6.44 1.833-2.324 4.535-4.067 5.789-6.827.964-.194 1.93-.969 2.798.097.627.532.772 1.404 1.447 1.985zm-25.036 65.043l.39-4.56c-.292.1-.145.54-.342.785.489.344-.487.49-.146.882-.195 1.325.244 1.864-.293 3.04.244.245.195-.147.39-.147zm.782-1.323c.195-.147.195-.49 0-.638.195.295-.391.981 0 .638zm1.367-4.07c-.244.05-.244.687-.244.687-.342.442-.049 1.128-.244 1.569-.049 1.569-.39 3.236-.293 4.756.439-2.893.342-4.315.781-7.011zm-.879 8.483l.076-.993c-.086.36-.353.596-.076.993zm-.488 5.736c-.098-.147 0-.49-.294-.392l.147.882.147-.49zm4.299 6.57c-.049-.442.146-.981-.196-1.275-.245.196-.342.343-.293.686.39-.05.098.588.489.588zM5.436 120.102c-1.248-.714-2.742-1.526-2.742-2.856 0-1.428 1.127-2.216 2.791-2.216 1.715 0 3.65.739 3.968.838v-2.314c-.564-.148-2.229-.493-3.845-.493-3.16 0-5.608 1.354-5.608 4.382 0 2.61 2.106 3.57 3.673 4.48l1.543.911c1.322.788 2.743 1.502 2.743 3.275 0 1.846-1.616 2.51-3.208 2.51-1.886 0-3.502-.689-4.482-1.255v2.56c.515.172 2.278.665 4.286.665 3.477 0 6.098-1.55 6.098-4.826 0-2.683-1.91-3.74-3.551-4.676l-1.666-.985" fill="#FFF" mask="url(#b)"/><path d="M19.278 128.694a4.384 4.384 0 0 1-1.175.172c-1.714 0-1.861-1.231-1.861-2.29v-6.253h3.233V118.6h-3.233v-4.136l-2.204 1.379v2.757h-2.082v1.723h2.082v7.41c0 1.6.686 2.856 3.502 2.856.588 0 1.175-.05 1.738-.172v-1.723m1.855-1.773h3.38v3.397h-3.38v-3.397zm13.861 3.397h9.55v-1.97h-7.101v-5.883h6.539v-1.97h-6.54v-5.193h6.882v-1.97h-9.33v16.986m12.348-16.986h2.204v16.986h-2.204v-16.986zm6.34 5.268h2.205v11.718h-2.205V118.6zm-.22-5.268h2.645v2.51h-2.645v-2.51zm9.304 9.699c-.76-.467-1.69-.91-1.69-1.723 0-.739.955-1.256 1.91-1.256 1.273 0 2.351.542 2.67.69v-1.994c-.564-.099-1.47-.418-2.646-.418-2.424 0-4.138 1.157-4.138 3.274 0 1.723 1.273 2.51 2.326 3.175l1.127.69c.783.516 1.86 1.009 1.86 1.895 0 1.206-1.322 1.502-2.375 1.502-1.224 0-2.718-.59-2.938-.69v1.945c.514.148 1.542.468 3.134.468 2.62 0 4.384-1.083 4.384-3.545 0-1.945-1.47-2.708-2.694-3.471l-.93-.542m11.68 7.287v-1.452c-.343.64-1.274 1.723-3.062 1.723-2.179 0-3.305-1.33-3.305-3.151 0-3.102 3.404-3.84 6.367-3.84v-2.044c-.196-1.132-.955-1.502-1.788-1.502-1.322 0-1.861.862-1.861 1.798H68.47c0-1.872 1.102-3.52 4.36-3.52 3.82 0 3.82 2.88 3.82 3.938v8.05h-2.204zm0-5.243h-.44c-1.74 0-3.479.788-3.479 2.29 0 .91.613 1.501 1.274 1.501 1.518 0 2.645-1.749 2.645-3.127v-.664zm7.692-11.743v6.868c.318-.64 1.224-1.87 3.086-1.87 3.232 0 3.967 3.175 3.967 6.252 0 3.619-1.347 6.007-4.727 6.007-4.383 0-4.53-3.643-4.53-5.12v-12.137h2.204zm0 11.102c0 1.822.049 4.432 2.204 4.432 1.934 0 2.4-2.191 2.4-4.357 0-1.699-.294-4.457-2.13-4.457-1.813 0-2.474 2.782-2.474 4.382zm17.682 4.014v1.747c-.956.222-1.641.394-2.915.394-3.526 0-5.779-2.092-5.779-6.695 0-5.023 3.257-5.564 4.75-5.564 2.841 0 4.213 1.944 4.213 4.701v.567h-6.76c0 2.191 1.103 5.268 4.286 5.268 1.004 0 1.69-.247 2.205-.418zm-6.392-6.327h4.457c0-.739-.441-2.069-2.13-2.069a2.241 2.241 0 0 0-2.327 2.069zm15.596 6.573a4.384 4.384 0 0 1-1.175.172c-1.714 0-1.861-1.231-1.861-2.29v-6.253h3.233V118.6h-3.233v-4.136l-2.204 1.379v2.757h-2.082v1.723h2.082v7.41c0 1.6.685 2.856 3.502 2.856.587 0 1.175-.05 1.738-.172v-1.723m2.418 1.624h2.204v-4.973c0-2.338 1.273-4.8 3.086-4.8 1.591 0 1.591 1.207 1.591 3.373v6.4h2.204v-8.123c0-1.454-.44-3.865-3.134-3.865-2.376 0-3.306 1.796-3.698 2.781h-.049v-7.779h-2.204v16.986m12.02-7.656h9.109v2.634h-9.11v-2.634zm16.63-2.56c-1.25-.714-2.743-1.526-2.743-2.856 0-1.428 1.126-2.216 2.792-2.216 1.714 0 3.648.739 3.967.838v-2.314c-.563-.148-2.229-.493-3.844-.493-3.16 0-5.609 1.354-5.609 4.382 0 2.61 2.106 3.57 3.673 4.48l1.543.911c1.323.788 2.743 1.502 2.743 3.275 0 1.846-1.617 2.51-3.208 2.51-1.886 0-3.502-.689-4.482-1.255v2.56c.515.172 2.278.665 4.286.665 3.477 0 6.098-1.55 6.098-4.826 0-2.683-1.91-3.74-3.551-4.676l-1.665-.985m13.842 8.592a4.394 4.394 0 0 1-1.176.172c-1.714 0-1.86-1.231-1.86-2.29v-6.253h3.232V118.6h-3.233v-4.136l-2.204 1.379v2.757h-2.081v1.723h2.081v7.41c0 1.6.686 2.856 3.502 2.856.588 0 1.175-.05 1.74-.172v-1.723m2.661-10.094h2.204v11.718h-2.204V118.6zm-.22-5.268h2.645v2.51h-2.645v-2.51zm7.222 16.986h2.204v-9.995h3.477V118.6h-3.477v-1.206c0-1.182.514-2.61 2.277-2.61.955 0 1.64.148 2.327.345v-1.846c-.735-.173-1.617-.222-2.352-.222-2.987 0-4.456 1.428-4.456 4.185v1.354h-2.106v1.723h2.106v9.995m13.902-1.624a4.39 4.39 0 0 1-1.175.172c-1.714 0-1.861-1.231-1.861-2.29v-6.253h3.232V118.6h-3.232v-4.136l-2.205 1.379v2.757h-2.08v1.723h2.08v7.41c0 1.6.686 2.856 3.503 2.856.587 0 1.175-.05 1.739-.172v-1.723m9.176 1.624h2.204V118.6h-2.204v4.973c0 2.338-1.274 4.8-3.085 4.8-1.592 0-1.592-1.18-1.592-3.372v-6.4h-2.204v8.123c0 1.453.44 3.865 3.135 3.865 2.375 0 3.33-1.797 3.697-2.782h.049v2.511m5.946 0h2.203v-4.973c0-2.338 1.274-4.8 3.087-4.8 1.59 0 1.59 1.207 1.59 3.373v6.4h2.205v-8.123c0-1.454-.44-3.865-3.134-3.865-2.376 0-3.306 1.796-3.698 2.781h-.05v-2.51h-2.203v11.717m21.349-11.718v12.186c0 3.397-1.91 4.8-5.387 4.8-1.813 0-3.062-.295-3.576-.418v-2.24c.71.344 1.935.936 3.355.936 3.404 0 3.404-2.389 3.404-3.718v-1.822c-.27.64-1.25 1.994-3.257 1.994-3.062 0-4.016-2.856-4.016-5.858 0-3.324 1.2-6.13 4.163-6.13 1.86 0 2.816 1.28 3.06 1.895l.05-1.625h2.204zm-7.028 5.81c0 1.55.294 4.185 2.252 4.185 1.886 0 2.572-2.536 2.572-4.407 0-1.772-.613-4.136-2.547-4.136-1.935 0-2.277 2.585-2.277 4.358zM323.379 4.556c-1.174-.44-2.638-1.225-3.958-1.47-2.931-1.324-6.057-2.108-9.038-2.942 4.056.735 8.892 2.01 12.996 4.412m-93.794 94.428c-.684-1.913-1.026-3.335-1.855-5.1.145 1.227.83 2.452 1.171 3.63.293 1.078.733 2.303 1.221 3.284.684 2.157 1.466 3.187 2.394 5-.732-1.715-1.563-3.48-2.296-5.098-.048-.588-.488-1.177-.635-1.716zM300.75 4.992c4.775.485 9.021 2.13 13.605 3.002.482-.726 1.205.097 1.929.049 1.882.775 3.666 1.888 5.693 1.743 1.833.63 3.329 1.113 4.92 1.694.821.485 1.882.823 2.606.969-1.254-1.308-2.992-1.743-4.632-2.373l.387-.339c-2.22-.968-4.246-2.033-6.562-2.905-.627-.532-1.447-.532-2.123-.871.29-.34.869-.097 1.255.048 1.689.969 3.956 1.404 5.693 2.324l.578.049c5.259 2.566 10.662 5.278 15.39 8.666.387.146.723.63 1.206.582.58.968 2.027 1.21 2.895 1.985l.29-.048c-.097-1.26-1.496-2.228-2.365-3.1-4.39-3.534-9.503-6.633-14.473-8.86 7.815 2.614 14.763 7.94 20.794 13.267 8.681 7.65 16.016 17.237 19.394 28.47-.048.532.194.968.29 1.403.049-1.839-.193-3.921-.967-5.567-.193-2.809-1.928-4.842-2.653-7.36a33.244 33.244 0 0 0-4.15-7.456c-.29-.823-1.205-1.404-1.011-2.276 1.834 2.663 3.665 5.132 4.92 7.989 1.015 2.227 2.124 4.648 2.99 7.069.82 2.712 1.642 5.52 1.739 8.716.625 4.406.818 7.263 1.35 11.862-.386 4.406-1.012 9.539-2.17 14.284-1.305 4.745-2.704 9.635-4.777 14.186-.77 2.082-1.98 4.02-2.702 6.053 2.073-3.05 4.053-6.537 5.452-9.877-1.544 4.453-3.907 8.618-5.935 12.878l-2.75 3.825c-4.726 5.617-9.504 10.217-14.761 15.06-4.825 3.292-9.843 7.214-14.908 10.07-3.473 1.84-6.898 3.825-10.614 4.986-5.402 2.132-10.854 3.342-16.692 4.6-5.017 1.26-10.468 1.163-15.1 1.211-3.136-.29-6.078-.483-9.022-1.404-4.728-.968-9.455-2.324-13.845-4.6-.386.097-.194-.29-.435-.533 1.785.582 2.991 1.26 4.535 1.84 5.886 1.646 11.579 3.245 17.754 3.293.917.339 1.592.533 2.557.29 3.377.437 8.008-.483 11.579-.823 6.367-.968 12.447-2.42 18.525-4.938l1.785-.871c-1.93.338-3.57 1.259-5.5 1.888-3.329.677-6.561 2.42-9.938 2.42-3.04.873-6.899 1.404-10.131 1.841-1.206.436-2.557-.097-3.812.241l-1.447-.048c2.509-.435 5.452-.484 8.057-1.113 2.17.096 4.39-.485 6.175-1.115-5.452.437-10.903 1.404-17.078 1.163-4.487 0-8.298-.968-12.544-1.84-8.684-2.615-18.187-5.375-25.666-11.572-.385-.049-.626-.387-.916-.727 3.329 2.083 6.223 4.165 9.6 5.666.772.58 1.352.58 2.075.92-3.184-2.034-6.803-4.455-9.793-7.166-3.57-2.81-7.43-6.682-9.938-10.894l.096-.291c.241 0 .144.436.482.339-.386-.436-.578-1.356-1.206-1.647-1.881-1.79-2.701-4.358-4.003-6.584-1.545-3.099-3.04-6.633-3.764-9.974 1.207-.92-.096-2.373-.29-3.487l-.53-.096c-1.255-5.617-2.605-10.991-2.122-17.14.289-5.956 1.11-11.524 2.556-16.899.193.048.773.098.868-.387 1.062-4.455 2.895-8.909 6.224-12.105 1.35-.484 1.93-2.179 3.329-2.663.579-.774 1.447-1.501 2.219-1.259-1.64 3.68-3.908 7.07-5.017 10.943-.917 2.034-1.448 4.358-2.123 6.488-.723 4.26-1.978 8.763-2.027 12.976.194 3.825.146 8.086 1.158 11.475.242.146-.144.678.29.872.29 3.195 1.64 6.536 2.123 9.103.434 1.065.772 2.953 1.35 4.067 2.751 8.328 8.154 15.736 14.763 21.255 4.873 3.922 10.42 7.456 15.824 10.072.772.29 1.013.532 1.64.58 6.368 2.422 14.087 4.116 21.083 4.746 12.109 0 25.327-3.244 35.266-11.234 5.065-3.68 10.034-8.23 13.315-13.8 4.487-5.809 6.897-12.83 9.312-19.705 1.157-3.631 2.121-7.166 2.702-11.088 1.06-9.441.867-19.223-2.318-28.228-.529-3.244-2.025-6.246-3.184-9.296-.916-1.21-1.012-2.809-2.267-3.874-5.017-7.117-12.929-11.185-20.6-15.058-6.657-3.583-14.376-6.924-22.385-7.796-4.245-.968-9.07-.823-13.315-.823-3.184.34-6.464-.145-9.504.34-2.894-.097-5.258.193-8.009-.05.676-.773 2.124-.532 3.089-1.113l.627-.436c2.074-.435 4.486-.58 6.513-1.016-.242-.34-.434-1.017.192-1.162 1.496-.533 3.377-.436 4.825-1.21-.048-.291-.434-.34-.676-.388.29-.63 1.014-.29 1.64-.484 2.847-.097 5.742.29 8.684-.34l-.096-.484c-1.061-.241-2.074-.241-3.136-.193 1.11-.727 2.558-.145 3.811-.242 3.33.048 6.562.339 9.698.63-1.304-.582-3.04-.436-4.295-1.066-2.266-.097-4.872-.387-7.188-.63l-.386-.29c.82-.387 1.93.242 2.895.145 1.784-.048 3.619.291 5.259.581zm-40.046 126.399c-1.563-1.079-3.566-1.912-5.276-2.403 3.029 1.717 5.96 3.335 9.233 4.217.439.44 1.221.588 1.612.687-.342-.246-1.074-.441-1.563-.786-1.466-.44-2.492-1.225-4.006-1.715zm28.87 5.442c6.597-.677 14.426-2.163 20.684-4.505-.317.1-.593.125-.9.24-.683 0-1.122.44-1.807.294-4.201 1.519-8.304 1.912-12.896 2.598-2.442.736-5.666.197-8.207.932-.196-.099-.586 0-.635-.295.44-.146 1.32-.146 1.758-.343a35.659 35.659 0 0 1-4.591 0c-.831-.05-1.466.05-2.199-.49 1.319-.245 2.735 0 4.202-.098-.586-.343-1.514-.392-2.296-.245-1.612.098-3.127-.392-4.494.196l-5.032-.834-.586.246c-2.052-.246-4.201-.785-6.107-1.324.636.343 2.052.882 3.127 1.176.635.589 1.612.197 2.198.883 3.614.833 7.034.883 11.187.883-.782.784-1.759.294-2.443.539 2.1.293 3.713.197 5.765.343l3.273-.196zm48.753-16.376c1.173-.881 2.003-1.617 3.126-2.647-1.953 1.422-4.005 2.796-5.861 4.119l-.147.49c-.195.294-.635.735-1.027.589-.877 1.128-2.002 1.323-3.125 2.107-.684.344-1.221.932-1.808 1.274 2.248-.882 4.25-2.303 6.253-3.774.977-.441 1.515-2.01 2.59-2.158zm-47.825 14.415c-.83.294-1.27-.05-2.149 0-.977.245-2.295.245-3.224.294 1.026.196 2.296-.098 3.37 0 .783-.343 1.71.147 2.003-.294zm-35.172-5c-.928-.492-1.807-1.178-2.735-1.815.733.735 1.905 1.422 2.735 1.814zm.977.587l-.88-.588c.148.294.636.588.88.588zm-3.859-2.451l-2.1-1.47.488.39c.489.345 1.075.933 1.612 1.08zm3.762 3.089l-.099-.098-.39-.146.489.244zm99.654-29.809c-1.661 2.01-3.71 3.922-5.472 6.325-.78.244-.048 1.176-.926 1.127.049.932-1.223 1.52-1.71 2.109a26.753 26.753 0 0 0-2.736 3.088c1.662-1.471 3.614-3.04 4.885-4.706.197-.736 1.271-.736 1.026-1.618 1.758-1.962 3.81-3.972 4.933-6.325zm8.305-21.62c.636-3.335 1.172-6.326 1.369-9.904-.685 2.892-.978 5.588-2.004 8.285-.584 1.912-.926 3.677-1.268 5.54l.342-.147c-.49 2.108-1.907 3.824-2.543 5.932 0 .736-.732 1.422-.78 2.256-1.369 2.402-2.25 5.344-3.763 7.746.636.736-.635 1.814-.78 2.304l1.122-1.029c2.394-4.658 5.179-9.365 6.499-14.562.245-.49.193-1.225.535-1.618 0-1.715.881-3.235 1.271-4.804zm-31.996-67.414c-.977-.442-1.808-1.226-2.884-1.57l-.047.295c.487.344 1.318.441 1.904.833.44.099.489.54 1.027.442z" fill="#FFF"/><path d="M317.125 5.684c-3.127-.98-6.888-1.667-10.112-2.549l.293-.098c3.615.735 6.692 1.225 9.819 2.647m2.687.834c-.44-.098-1.27-.05-1.514-.49.586 0 1.025.244 1.514.49m22.031 9.854c-.146.05-.536-.049-.34-.294.291-.05.291.098.34.294M295.827 40.15c.097.245-.196.295-.342.344-.39.098-.196-.294-.245-.54.195-.147.587-.097.587.197m14.849 4.069l-.34.098c.047-.098.194-.245.34-.098m-1.464.05c0 .244-.293.342-.489.39 0-.293.293-.49.489-.39m-2.199 1.372c.05.098-.244.245-.293.098v-.344c.245-.097.245.099.293.246m25.647 1.764c.147.687-.733.884-1.075 1.275 0-.49.635-.931 1.075-1.275m-40.155 26.966l-.195.294c-.05-.785-.147-1.766.048-2.5.342.588.196 1.373.147 2.206m-3.224 56.038c-.146-.588-.293-1.667.097-2.304.489.49 0 1.471-.097 2.305" fill="#FFF"/></g></svg>